<svg xmlns="http://www.w3.org/2000/svg" width="32" height="32" viewBox="0 0 32 32" fill="none">
  <path d="M13.2286 18.0226C13.823 18.0226 14.3049 17.5474 14.3049 16.9611C14.3049 16.3749 13.823 15.8997 13.2286 15.8997C12.6342 15.8997 12.1523 16.3749 12.1523 16.9611C12.1523 17.5474 12.6342 18.0226 13.2286 18.0226Z" fill="#2D2D2D"/>
  <path d="M18.7164 18.0226C19.3108 18.0226 19.7927 17.5474 19.7927 16.9611C19.7927 16.3749 19.3108 15.8997 18.7164 15.8997C18.122 15.8997 17.6401 16.3749 17.6401 16.9611C17.6401 17.5474 18.122 18.0226 18.7164 18.0226Z" fill="#2D2D2D"/>
  <path d="M20.7926 14.9223C21.1457 14.9223 21.4917 14.8908 21.8289 14.8339C21.8715 14.8269 21.8999 14.7849 21.8901 14.7429C21.2877 12.0696 18.8698 10.071 15.9773 10.071C12.6323 10.071 9.91992 12.7452 9.91992 16.045C9.91992 16.1228 9.9217 16.2007 9.92436 16.2786C9.92613 16.3241 9.96872 16.3574 10.014 16.3495C12.6483 15.9015 14.7005 13.7751 14.9969 11.1263C15.0058 11.0476 15.114 11.0336 15.1424 11.1071C16.0199 13.3393 18.2177 14.9232 20.7908 14.9232L20.7926 14.9223Z" fill="#2D2D2D"/>
  <path d="M24.7596 14.5146C24.0232 10.3922 20.3658 7.24994 15.9783 7.24994C11.5907 7.24994 7.88102 10.4368 7.18185 14.6029C6.46227 15.1621 6 16.0284 6 17.0014V20.4911C6 21.1815 6.56785 21.7415 7.26791 21.7415H8.28118C8.89872 21.7415 9.40003 21.2471 9.40003 20.6381V14.2485C9.40003 14.2109 9.39204 14.175 9.37962 14.1418C10.2154 11.3259 12.8568 9.26254 15.9783 9.26254C19.0997 9.26254 21.7917 11.3661 22.6009 14.224V20.5961C22.6009 20.6372 22.6035 20.6784 22.608 20.7186V22.4109H16.0475C15.3927 22.4109 14.8612 22.9342 14.8612 23.5809C14.8612 24.2275 15.3918 24.7508 16.0475 24.7508H23.694C24.3488 24.7508 24.8803 24.2275 24.8803 23.5809C24.8803 23.4864 24.8678 23.3954 24.8465 23.3079V21.6943C25.4934 21.6374 26 21.1028 26 20.45V16.9603C26 15.9601 25.5129 15.0728 24.7596 14.5163V14.5146Z" fill="#2D2D2D"/>
</svg>