<svg xmlns="http://www.w3.org/2000/svg" width="20" height="20" viewBox="0 0 20 20" fill="none">
  <path fill-rule="evenodd" clip-rule="evenodd" d="M6.5 1.66667C6.86819 1.66667 7.16667 1.96515 7.16667 2.33334V4.16671L12.832 4.16678V2.33334C12.832 1.96515 13.1305 1.66667 13.4987 1.66667C13.8669 1.66667 14.1654 1.96515 14.1654 2.33334V4.16679L15.9994 4.16681C16.8278 4.16682 17.4993 4.8384 17.4993 5.66682V16.0002C17.4993 16.8286 16.8278 17.5002 15.9993 17.5002H4C3.17157 17.5002 2.5 16.8286 2.5 16.0002V5.66667C2.5 4.83824 3.17158 4.16666 4.00002 4.16667L5.83333 4.16669V2.33334C5.83333 1.96515 6.13181 1.66667 6.5 1.66667ZM4 5.50001C3.90795 5.5 3.83333 5.57462 3.83333 5.66667V7.66683H16.166V5.66682C16.166 5.57477 16.0914 5.50015 15.9994 5.50015L4 5.50001ZM3.83333 16.0002V9.00017H16.166V16.0002C16.166 16.0922 16.0914 16.1668 15.9993 16.1668H4C3.90795 16.1668 3.83333 16.0922 3.83333 16.0002ZM6.33464 11.6667C5.8744 11.6667 5.5013 12.0398 5.5013 12.5C5.5013 12.9602 5.8744 13.3333 6.33464 13.3333C6.79487 13.3333 7.16797 12.9602 7.16797 12.5C7.16797 12.0398 6.79487 11.6667 6.33464 11.6667ZM10 11.6667C9.53976 11.6667 9.16667 12.0398 9.16667 12.5C9.16667 12.9602 9.53976 13.3333 10 13.3333C10.4602 13.3333 10.8333 12.9602 10.8333 12.5C10.8333 12.0398 10.4602 11.6667 10 11.6667ZM12.8353 12.5C12.8353 12.0398 13.2084 11.6667 13.6686 11.6667C14.1289 11.6667 14.502 12.0398 14.502 12.5C14.502 12.9602 14.1289 13.3333 13.6686 13.3333C13.2084 13.3333 12.8353 12.9602 12.8353 12.5Z" fill="#1D1D1D"/>
</svg>