<svg width="360" height="56" viewBox="0 0 360 56" fill="none" xmlns="http://www.w3.org/2000/svg">
<rect x="0.5" y="0.5" width="359" height="55" rx="7.5" fill="white"/>
<rect x="0.5" y="0.5" width="359" height="55" rx="7.5" stroke="#717171"/>
<path d="M17.4844 34.5V21.0664H22.0488C25.2031 21.0664 26.6318 22.9404 26.6318 25.334C26.6318 27.709 25.2031 29.6201 22.0674 29.6201H19.1543V34.5H17.4844ZM19.1543 28.1357H21.9932C24.127 28.1357 24.9805 26.9297 24.9805 25.334C24.9805 23.7197 24.127 22.5508 21.9746 22.5508H19.1543V28.1357ZM30.3613 21.0664V34.5H28.7656V21.0664H30.3613ZM32.4209 31.6426C32.4209 29.3232 34.4619 28.8037 36.2061 28.6738C36.8462 28.6274 38.479 28.5439 38.9336 28.5254V27.709C38.9336 26.4287 38.1729 25.6865 36.6514 25.6865C35.3711 25.6865 34.6104 26.2803 34.3877 27.041H32.7178C32.9219 25.4268 34.499 24.2949 36.7256 24.2949C38.043 24.2949 40.5107 24.6846 40.5107 27.8574V34.5H38.9336V33.127H38.8594C38.5254 33.8135 37.5977 34.7412 35.8535 34.7412C33.9424 34.7412 32.4209 33.6094 32.4209 31.6426ZM34.0166 31.7168C34.0166 32.7744 34.9072 33.3125 36.1318 33.3125C37.9316 33.3125 38.9336 32.1064 38.9336 30.8447V29.8242L36.3916 30.0098C34.9443 30.1025 34.0166 30.6221 34.0166 31.7168ZM47.1904 34.7041C44.333 34.7041 42.5889 32.5332 42.5889 29.5088C42.5889 26.4473 44.4072 24.2949 47.1533 24.2949C49.3057 24.2949 50.9014 25.5566 51.1611 27.4678H49.5654C49.3428 26.54 48.5264 25.7051 47.1904 25.7051C45.3906 25.7051 44.1846 27.1895 44.1846 29.4531C44.1846 31.791 45.3535 33.2754 47.1904 33.2754C48.3779 33.2754 49.2871 32.6445 49.5654 31.5312H51.1611C50.9014 33.3311 49.4355 34.7041 47.1904 34.7041ZM57.3584 34.7041C54.4453 34.7041 52.6455 32.6445 52.6455 29.5459C52.6455 26.4473 54.4639 24.2949 57.21 24.2949C59.3252 24.2949 61.5518 25.5938 61.5518 29.3232V29.9912H54.2412C54.3154 32.125 55.5586 33.2939 57.3584 33.2939C58.5645 33.2939 59.3252 32.7744 59.6963 32.1436H61.4033C60.9209 33.665 59.4365 34.7041 57.3584 34.7041ZM54.2598 28.6367H59.9375C59.9375 26.9482 58.8613 25.7051 57.21 25.7051C55.4658 25.7051 54.3525 27.0781 54.2598 28.6367ZM65.2256 28.4512V34.5H63.6299V21.0664H65.2256V26.002H65.3555C65.8193 24.9629 66.7285 24.2949 68.3242 24.2949C70.3838 24.2949 71.7568 25.5195 71.7568 28.0986V34.5H70.1611V28.21C70.1611 26.6328 69.2891 25.7236 67.8418 25.7236C66.3389 25.7236 65.2256 26.707 65.2256 28.4512ZM78.4365 34.7041C75.6904 34.7041 73.835 32.6445 73.835 29.5088C73.835 26.373 75.6904 24.2949 78.4365 24.2949C81.1641 24.2949 83.001 26.373 83.001 29.5088C83.001 32.6445 81.1641 34.7041 78.4365 34.7041ZM78.4365 33.2939C80.459 33.2939 81.4053 31.5127 81.4053 29.5088C81.4053 27.5049 80.459 25.7051 78.4365 25.7051C76.377 25.7051 75.4307 27.5049 75.4307 29.5088C75.4307 31.5127 76.377 33.2939 78.4365 33.2939ZM86.6934 21.0664V34.5H85.0977V21.0664H86.6934ZM93.0391 34.7041C90.5342 34.7041 88.7529 32.6816 88.7529 29.4902C88.7529 26.2988 90.5342 24.2949 93.0576 24.2949C95.0059 24.2949 95.6367 25.4824 95.9707 26.0205H96.082V21.0664H97.6963V34.5H96.1377V32.96H95.9707C95.6182 33.5166 94.9688 34.7041 93.0391 34.7041ZM93.2617 33.2754C95.0986 33.2754 96.1377 31.7168 96.1377 29.4531C96.1377 27.2266 95.1357 25.7236 93.2617 25.7236C91.332 25.7236 90.3672 27.3564 90.3672 29.4531C90.3672 31.6055 91.3506 33.2754 93.2617 33.2754ZM104.691 34.7041C101.778 34.7041 99.9785 32.6445 99.9785 29.5459C99.9785 26.4473 101.797 24.2949 104.543 24.2949C106.658 24.2949 108.885 25.5938 108.885 29.3232V29.9912H101.574C101.648 32.125 102.892 33.2939 104.691 33.2939C105.897 33.2939 106.658 32.7744 107.029 32.1436H108.736C108.254 33.665 106.77 34.7041 104.691 34.7041ZM101.593 28.6367H107.271C107.271 26.9482 106.194 25.7051 104.543 25.7051C102.799 25.7051 101.686 27.0781 101.593 28.6367ZM110.963 34.5V24.4248H112.503V25.9648H112.614C112.985 24.9443 114.024 24.2578 115.212 24.2578C115.453 24.2578 115.861 24.2764 116.047 24.2949V25.9092C115.936 25.8721 115.49 25.7979 115.082 25.7979C113.635 25.7979 112.559 26.7998 112.559 28.1543V34.5H110.963Z" fill="#8E8E8E"/>
<path d="M325.75 24.875L332 31.75L338.25 24.875" stroke="#2D2D2D" stroke-width="1.6" stroke-linecap="round"/>
<path d="M325.75 24.875L332 31.75L338.25 24.875" stroke="black" stroke-opacity="0.2" stroke-width="1.6" stroke-linecap="round"/>
<path d="M325.75 24.875L332 31.75L338.25 24.875" stroke="black" stroke-opacity="0.2" stroke-width="1.6" stroke-linecap="round"/>
</svg>
