<svg width="20" height="6" viewBox="0 0 20 6" fill="none" xmlns="http://www.w3.org/2000/svg">
<path id="Icon (Stroke)" fill-rule="evenodd" clip-rule="evenodd" d="M1 3C1 1.89543 1.89543 1 3 1C4.10457 1 5 1.89543 5 3C5 4.10457 4.10457 5 3 5C1.89543 5 1 4.10457 1 3ZM8 3C8 1.89543 8.89543 1 10 1C11.1046 1 12 1.89543 12 3C12 4.10457 11.1046 5 10 5C8.89543 5 8 4.10457 8 3ZM15 3C15 1.89543 15.8954 1 17 1C18.1046 1 19 1.89543 19 3C19 4.10457 18.1046 5 17 5C15.8954 5 15 4.10457 15 3Z" fill="#717171" stroke="#717171" stroke-width="2" stroke-linecap="round" stroke-linejoin="round"/>
</svg>
